<svg width="20" height="21" viewBox="0 0 20 21" fill="none" xmlns="http://www.w3.org/2000/svg">
<g clip-path="url(#clip0_286_199)">
<path d="M9.36436 1.87806C9.61455 1.33565 10.3855 1.33566 10.6356 1.87807L12.6573 6.26091C12.7592 6.48198 12.9687 6.63419 13.2105 6.66285L18.0035 7.23115C18.5967 7.30148 18.8349 8.03465 18.3964 8.44021L14.8527 11.7172C14.674 11.8825 14.594 12.1288 14.6414 12.3676L15.5821 17.1017C15.6985 17.6875 15.0748 18.1407 14.5536 17.8489L10.3419 15.4914C10.1295 15.3725 9.87052 15.3725 9.65809 15.4914L5.4464 17.8489C4.92517 18.1407 4.3015 17.6875 4.41791 17.1017L5.35857 12.3676C5.40601 12.1288 5.32599 11.8825 5.14725 11.7172L1.60363 8.4402C1.16508 8.03465 1.4033 7.30148 1.99648 7.23115L6.78953 6.66285C7.03128 6.63419 7.24078 6.48198 7.34275 6.26091L9.36436 1.87806Z" fill="#E9E9E9"/>
<mask id="mask0_286_199" style="mask-type:alpha" maskUnits="userSpaceOnUse" x="1" y="1" width="18" height="17">
<path d="M9.36436 1.87806C9.61455 1.33565 10.3855 1.33566 10.6356 1.87807L12.6573 6.26091C12.7592 6.48198 12.9687 6.63419 13.2105 6.66285L18.0035 7.23115C18.5967 7.30148 18.8349 8.03465 18.3964 8.44021L14.8527 11.7172C14.674 11.8825 14.594 12.1288 14.6414 12.3676L15.5821 17.1017C15.6985 17.6875 15.0748 18.1407 14.5536 17.8489L10.3419 15.4914C10.1295 15.3725 9.87052 15.3725 9.65809 15.4914L5.4464 17.8489C4.92517 18.1407 4.3015 17.6875 4.41791 17.1017L5.35857 12.3676C5.40601 12.1288 5.32599 11.8825 5.14725 11.7172L1.60363 8.4402C1.16508 8.03465 1.4033 7.30148 1.99648 7.23115L6.78953 6.66285C7.03128 6.63419 7.24078 6.48198 7.34275 6.26091L9.36436 1.87806Z" fill="#E9E9E9"/>
</mask>
<g mask="url(#mask0_286_199)">
<rect x="-1.46484" y="-1.07324" width="11.4648" height="21.5732" fill="#ECE549"/>
</g>
</g>
<defs>
<clipPath id="clip0_286_199">
<rect width="20" height="20" fill="white" transform="translate(0 0.5)"/>
</clipPath>
</defs>
</svg>
